<?xml version="1.0" encoding="UTF-8" standalone="no"?>
<!-- Created with Inkscape (http://www.inkscape.org/) -->

<svg
   version="1.1"
   id="svg1"
   width="675.51556"
   height="532.94965"
   viewBox="0 0 675.51556 532.94965"
   sodipodi:docname="mc1a1.svg"
   inkscape:version="1.3.2 (091e20ef0f, 2023-11-25)"
   xmlns:inkscape="http://www.inkscape.org/namespaces/inkscape"
   xmlns:sodipodi="http://sodipodi.sourceforge.net/DTD/sodipodi-0.dtd"
   xmlns="http://www.w3.org/2000/svg"
   xmlns:svg="http://www.w3.org/2000/svg">
  <defs
     id="defs1" />
  <sodipodi:namedview
     id="namedview1"
     pagecolor="#ffffff"
     bordercolor="#000000"
     borderopacity="0.25"
     inkscape:showpageshadow="2"
     inkscape:pageopacity="0.0"
     inkscape:pagecheckerboard="0"
     inkscape:deskcolor="#d1d1d1"
     showgrid="false"
     inkscape:zoom="1.3045161"
     inkscape:cx="335.37339"
     inkscape:cy="273.2814"
     inkscape:window-width="1920"
     inkscape:window-height="1011"
     inkscape:window-x="0"
     inkscape:window-y="0"
     inkscape:window-maximized="1"
     inkscape:current-layer="layer1" />
  <g
     inkscape:groupmode="layer"
     id="layer1"
     inkscape:label="Layer 1"
     transform="translate(-52.040335,-33)">
    <path
       style="fill:#000000"
       d="m 617.366,564.07887 c -2.2737,-1.03247 -5.6487,-3.54819 -7.5,-5.59049 -1.8513,-2.0423 -5.616,-6.08201 -8.366,-8.97713 -2.75,-2.89512 -5.84698,-7.45702 -6.88217,-10.13755 -3.90009,-10.09891 -11.11116,-20.60714 -30.79369,-44.8737 -19.10382,-23.55306 -25.08744,-30.26043 -34.26219,-38.40638 -2.35027,-2.08673 -5.15378,-6.25726 -7.23658,-10.76522 -2.98399,-6.45844 -3.62661,-7.23755 -5.2521,-6.36761 -3.14849,1.68502 -13.98154,14.08576 -20.67574,23.66781 C 485.20618,478.64782 471,510.83199 471,520.16679 c 0,4.6419 6.30442,10.35185 12.44654,11.27292 10.22183,1.53286 18.06146,7.06705 19.11871,13.49637 0.32232,1.96016 1.05349,4.79392 1.62482,6.29725 0.57132,1.50334 0.73177,4.36977 0.35655,6.36985 -0.6544,3.48824 -0.8214,3.61391 -4.09609,3.0825 -1.87764,-0.30469 -3.63892,-0.18987 -3.91397,0.25516 -0.27505,0.44504 -7.14579,0.80991 -15.26832,0.81083 -11.49727,10e-4 -16.02393,-0.39906 -20.43761,-1.80762 -12.76217,-4.07287 -14.43231,-5.93796 -19.52172,-21.80051 -3.36264,-10.48057 -3.7229,-12.64235 -3.60695,-21.64354 0.0709,-5.5 0.83173,-13.375 1.69085,-17.5 0.85912,-4.125 2.67992,-13.575 4.04623,-21 1.3663,-7.425 3.83722,-18.85351 5.49093,-25.3967 1.6537,-6.54318 2.82471,-12.19122 2.60223,-12.55121 -0.22249,-0.35998 -6.62075,0.16908 -14.21836,1.1757 -8.48716,1.12447 -23.64675,2.05301 -39.31384,2.40802 -27.89215,0.63202 -39.69864,-0.38357 -59.63836,-5.13006 -11.07232,-2.63568 -41.00236,-11.62203 -46.85984,-14.06944 l -3.66563,-1.5316 -4.61364,5.29764 c -7.43263,8.53457 -20.83156,21.31213 -33.72253,32.15869 -20.47563,17.22833 -31.0432,29.07259 -33.46121,37.50372 -0.73425,2.56015 -0.33093,3.92841 2.58562,8.77182 3.75872,6.24197 12.53724,17.30736 17.0458,21.48636 2.46452,2.28437 3.95867,2.69755 11.57543,3.20101 4.95178,0.32731 10.28016,1.30625 12.28302,2.25667 4.05102,1.92234 10.47134,8.95721 10.47134,11.47365 0,0.93185 0.68338,3.63119 1.51863,5.99854 1.16216,3.29391 1.27274,5.04932 0.47107,7.47839 -1.09743,3.32525 -5.41086,6.2144 -6.54302,4.38253 -0.40793,-0.66004 -1.03288,-0.67211 -1.80082,-0.0348 -0.64685,0.53684 -7.91929,1.11255 -16.16098,1.27936 -16.82401,0.34052 -15.04614,0.87099 -28.98488,-8.64835 -12.60002,-8.60506 -13.64205,-9.58231 -16.06885,-15.06973 -1.25897,-2.84675 -5.1812,-10.07289 -8.71607,-16.05807 -3.53487,-5.98519 -8.74184,-15.31954 -11.57105,-20.743 -6.60784,-12.66689 -6.86558,-17.39872 -1.65198,-30.32825 1.92063,-4.76308 3.31587,-8.83632 3.10054,-9.05165 -0.74021,-0.74022 -19.09713,1.69815 -24.19601,3.21398 -6.92279,2.05806 -15.81091,8.07538 -17.66211,11.95738 -2.03558,4.26866 -3.54228,12.09516 -4.59155,23.85059 -0.9359,10.48532 -0.43054,14.83698 2.80168,24.12534 2.74585,7.89068 2.70877,16.39419 -0.0954,21.88329 -1.18295,2.31559 -2.45262,5.33516 -2.82148,6.71016 -0.75429,2.81173 -3.40433,3.69177 -11.6888,3.88169 -4.60508,0.10556 -5.44001,-0.21316 -7.75,-2.95842 C 116.165,555.23108 115,553.12258 115,552.23773 c 0,-0.88486 -0.86306,-2.53783 -1.9179,-3.67328 -3.30494,-3.55748 -5.89041,-13.3337 -6.49644,-24.56445 -0.31162,-5.775 -0.82308,-12.975 -1.13656,-16 -0.40761,-3.9332 0.0182,-7.63654 1.49479,-13 1.13562,-4.125 3.19243,-12.73045 4.57068,-19.12322 1.37825,-6.39277 3.40131,-14.22572 4.49567,-17.40655 1.09437,-3.18083 1.99144,-7.85038 1.9935,-10.37678 0.006,-7.38459 2.46903,-10.25791 13.18019,-15.37585 17.76938,-8.49044 36.87092,-25.47192 42.66889,-37.93312 7.47967,-16.07555 8.55171,-24.06483 4.71912,-35.16884 -5.09106,-14.75012 -5.23512,-26.68071 -0.5748,-47.6028 2.89758,-13.00841 1.6429,-20.5685 -4.89798,-29.51284 C 168.58162,276.32248 162.59171,266.86377 156.95078,257 144.2251,234.74775 136.60501,225.11096 104.02897,190.07207 80.057266,164.28804 74.939124,158.32984 68.318194,148.5 44.817696,113.60971 46.82695,76.233382 73.931507,44.080629 80.518908,36.266331 86.072887,33 92.772704,33 c 4.614245,0 5.797727,0.416584 8.304216,2.923077 2.4323,2.432301 2.92308,3.742606 2.92308,7.804219 0,5.383578 -2.31065,9.771437 -10.331015,19.618277 -15.675624,19.245437 -17.10144,42.768487 -3.908424,64.481037 5.953442,9.79794 15.086979,19.81469 40.616749,44.54437 25.31251,24.51924 32.21672,32.20147 49.25895,54.80979 12.72431,16.88013 21.18001,25.35456 27.96095,28.02285 10.16656,4.00053 18.02769,3.58849 48.40279,-2.53705 43.30819,-8.73368 68.62004,-11.67241 100.41061,-11.65779 39.26547,0.0181 61.91661,2.9503 97.11428,12.57167 28.28,7.73041 36.28365,8.70593 47.617,5.80376 11.39839,-2.91882 24.45291,-2.48518 33.35811,1.10806 10.61307,4.28238 17.97111,3.9853 31.75143,-1.28195 15.359,-5.87067 21.76587,-9.13903 34.47445,-17.58659 6.17424,-4.10409 13.69142,-8.38446 16.70486,-9.51193 4.24778,-1.5893 7.46152,-4.02312 14.30162,-10.83087 4.85246,-4.82951 12.49612,-12.05318 16.9859,-16.05259 4.71747,-4.20223 9.66394,-9.74207 11.71848,-13.1242 2.80111,-4.61113 4.21893,-5.98527 6.68424,-6.47834 4.61609,-0.92321 4.84314,-0.85038 5.88407,1.88749 2.77938,7.3103 2.9863,21.79209 0.54992,38.48671 -0.49002,3.35769 -0.27116,3.65324 5.38261,7.26878 7.12263,4.55487 25.85458,24.35375 29.46409,31.1423 2.33513,4.39178 2.59833,5.97938 2.59833,15.67276 0,5.93228 0.4127,11.87145 0.91711,13.19815 0.50441,1.3267 3.24715,5.0685 6.09496,8.3151 7.27242,8.29078 10.23058,13.58794 9.4112,16.85259 -0.36321,1.44717 -2.85482,4.48158 -5.5369,6.74314 -3.07886,2.59614 -5.22005,5.35613 -5.80843,7.48708 -0.62565,2.2659 -4.07104,6.47369 -10.4835,12.8033 -11.52194,11.37308 -14.38322,12.56658 -24.20949,10.0983 -7.98541,-2.00587 -15.4242,-2.00392 -25.15777,0.007 -8.702,1.79745 -11.10403,2.84741 -23.72718,10.37148 -20.25844,12.0751 -28.20741,18.63423 -37.01178,30.54042 l -5.17635,7 -1.29071,12.72577 c -0.70989,6.99917 -1.01766,14.42417 -0.68394,16.5 0.33372,2.07583 2.61725,8.94923 5.0745,15.27423 2.45725,6.325 7.69947,19.825 11.64938,30 10.904,28.08879 19.0056,44.11382 25.87155,51.17414 4.43831,4.56395 6.3195,5.82586 8.68491,5.82586 4.41677,0 12.70338,2.67801 15.78345,5.10079 3.54124,2.78555 8.57782,11.68679 8.58961,15.18059 0.006,1.74292 -0.64401,3.02187 -1.74062,3.42549 -0.9625,0.35426 -2.78934,1.74228 -4.05964,3.08449 -2.07223,2.18954 -2.93716,2.395 -8.41426,1.99883 -3.58425,-0.25927 -7.58504,0.0876 -9.69036,0.84023 -5.53312,1.97793 -17.8054,1.68 -22.71974,-0.55155 z m 21.34905,-1.69216 c 2.63172,-0.88731 5.14481,-2.23731 5.58464,-3 C 645.50039,557.30463 648,557.71892 648,560 c 0,1.55556 0.66667,2 3,2 2.89687,0 7,-2.93081 7,-5 0,-0.55 0.9,-1 2,-1 1.1,0 1.99578,-0.3375 1.99062,-0.75 -0.023,-1.83678 -6.16884,-11.24503 -8.58961,-13.14921 C 650.32094,539.67801 642.03433,537 637.61756,537 c -2.36541,0 -4.2466,-1.26191 -8.68491,-5.82586 C 622.06411,524.11116 613.95649,508.07181 603.065,480 c -3.94777,-10.175 -9.2164,-23.675 -11.70808,-30 -2.63704,-6.69401 -4.76287,-13.92275 -5.08679,-17.29727 -0.53323,-5.55505 1.23797,-28.58275 2.43845,-31.70273 4.68858,-12.18538 5.28065,-14.84605 5.22942,-23.5 -0.0345,-5.82995 -0.75462,-11.4656 -2.04441,-16 -2.81855,-9.9089 -3.26148,-12.5 -2.13676,-12.5 0.54111,0 2.26414,3.4875 3.82897,7.75 2.55819,6.96837 2.8483,9.02509 2.87641,20.39276 l 0.0313,12.64275 7.023,-6.64275 c 3.86265,-3.65352 9.48912,-8.25735 12.50327,-10.23073 7.52869,-4.9291 22.73226,-13.9536 26.9996,-16.02638 8.9982,-4.37068 29.39183,-6.20197 39.48066,-3.54525 3.10953,0.81885 6.14932,1.0132 8.03976,0.51402 3.54768,-0.93677 11.4602,-7.39563 11.4602,-9.35479 0,-0.73949 -1.539,-1.85244 -3.42001,-2.47323 -4.40487,-1.45374 -6.47546,-3.74554 -4.17988,-4.62644 0.89395,-0.34304 2.20446,-0.1431 2.91224,0.4443 0.70778,0.58741 3.0906,1.35645 5.29516,1.70897 3.38782,0.54173 4.48328,0.24126 7.0769,-1.94113 3.40918,-2.86863 6.37683,-10.41898 5.69956,-14.50089 -0.23829,-1.43617 -2.55966,-7.86377 -5.15861,-14.28358 -4.54186,-11.21909 -4.82741,-11.65205 -7.35319,-11.14943 -1.44531,0.28761 -3.51923,0.0459 -4.60872,-0.53721 -2.31181,-1.23724 -4.76597,-8.98233 -3.8053,-12.00914 0.86856,-2.73659 11.15569,-11.48854 12.51574,-10.64799 0.5823,0.35989 0.84554,0.9993 0.58496,1.42092 -0.26058,0.42162 -0.0816,2.07803 0.39773,3.6809 0.74944,2.5061 0.88355,2.12975 0.95747,-2.68674 0.0648,-4.22612 -0.55189,-6.80067 -2.51238,-10.48786 -3.35425,-6.30847 -21.73776,-26.02154 -28.80671,-30.89012 -6.56098,-4.51872 -10.04516,-4.35088 -16.18224,0.77954 -2.15199,1.79901 -5.15022,4.05273 -6.66272,5.00826 -2.22388,1.40496 -2.75,2.47478 -2.75,5.59185 0,3.66476 -2.21508,7.17843 -3.35879,5.32788 -0.51906,-0.83986 -1.30393,-3.97792 -2.32024,-9.27681 -0.27759,-1.44729 0.51012,-4.90377 1.82316,-8 2.71338,-6.39835 10.62145,-21.87637 12.13613,-23.75336 C 661.15598,210.11311 670,189.28983 670,188.31313 670,188.14091 669.13258,188 668.0724,188 c -1.28353,0 -3.14103,1.99754 -5.55924,5.97834 -2.13457,3.51387 -6.9968,8.97595 -11.7949,13.25 -4.48978,3.99941 -12.13344,11.22308 -16.9859,16.05259 -6.8401,6.80775 -10.05384,9.24157 -14.30162,10.83087 -3.01344,1.12747 -10.53062,5.40784 -16.70486,9.51193 -12.66547,8.4189 -19.03694,11.67418 -34.47445,17.6135 -9.73834,3.74667 -11.59948,4.13629 -19.75143,4.13491 -7.3974,-10e-4 -10.22677,-0.48105 -15.88937,-2.69447 -9.37635,-3.66509 -15.49227,-4.21005 -24.61063,-2.19297 -20.12318,4.45147 -22.6602,4.21547 -58.17159,-5.41138 -33.08819,-8.96995 -56.90494,-12.04578 -93.4178,-12.06454 -29.71255,-0.0153 -55.89692,3.08583 -98.41061,11.65505 -25.44357,5.12851 -28.24779,5.50481 -37.5,5.03219 -6.54176,-0.33418 -11.69551,-1.18706 -14.90279,-2.46624 -6.78876,-2.70759 -15.27747,-11.22303 -27.96095,-28.04901 C 160.59403,206.57245 153.68982,198.89022 128.37731,174.37098 88.429295,135.6749 81.418672,125.64394 78.969174,103.67665 77.238277,88.153829 81.556183,73.761366 91.668985,61.345573 102.5395,47.999508 104.12868,42.974835 99.076923,37.923077 91.982883,30.829036 80.975949,37.363981 68.081626,56.325346 60.33987,67.709757 54.021925,86.380287 54.007006,97.918087 53.98694,113.4359 59.889897,131.0175 70.318194,146.5 c 6.62093,9.82984 11.739072,15.78804 35.710776,41.57207 32.57604,35.03889 40.19613,44.67568 52.92181,66.92793 5.59873,9.78999 11.60244,19.27888 16.13409,25.5 7.16978,9.84277 8.24902,18.63655 4.41819,36 -4.43244,20.09032 -3.21076,34.04105 4.13089,47.17186 1.89793,3.39453 3.65174,7.21531 3.89734,8.49062 0.2456,1.27531 1.79267,4.84433 3.43794,7.93116 1.64526,3.08683 2.73018,5.87361 2.41094,6.19286 -0.31924,0.31924 -0.21053,1.17288 0.24157,1.89697 0.45211,0.72409 0.94717,1.87903 1.10014,2.56653 0.69462,3.12192 1.05061,4.07615 3.45095,9.25 3.68649,7.94612 3.95927,9.15576 4.22609,18.74051 0.22896,8.22502 0.0504,9.05469 -3.48966,16.21404 -2.05203,4.15 -4.67788,10.47045 -5.83523,14.04545 -1.15734,3.575 -2.57864,7.33132 -3.15843,8.34738 -0.5798,1.01606 -0.83059,2.07097 -0.55731,2.34424 0.27327,0.27328 -0.57601,2.41856 -1.8873,4.76731 C 183.35687,471.82802 179,483.89224 179,487.91519 c 0,4.21437 5.28914,15.12072 16.71508,34.46697 3.53487,5.98518 7.4571,13.21132 8.71607,16.05807 2.4268,5.48742 3.46883,6.46467 16.06885,15.06973 11.06184,7.55459 13.2382,8.65964 16.85149,8.5564 1.73168,-0.0495 7.62739,-0.10539 13.10157,-0.12424 5.55538,-0.0191 10.52357,-0.50776 11.24426,-1.10588 0.71015,-0.58937 2.35689,-0.86787 3.65941,-0.61888 1.61176,0.30811 2.76169,-0.17734 3.60007,-1.51979 1.95593,-3.13194 -0.6318,-12.95788 -4.64832,-17.65029 -4.57238,-5.34179 -8.93249,-7.08801 -19.3896,-7.76549 l -8.99316,-0.58264 -5.13469,-5.59958 c -6.34439,-6.91879 -13.35995,-16.34279 -15.96746,-21.44907 -5.11918,-10.02488 3.89884,-23.0758 32.67643,-47.28946 17.33071,-14.58219 41.47663,-38.79841 44.73079,-44.86104 0.88565,-1.65 3.2983,-8.4 5.36145,-15 l 3.75117,-12 7.2494,-7 C 316.06585,372.28406 319,366.77647 319,359.96505 319,358.33427 319.45,357 320,357 c 0.55116,0 0.99832,2.58084 0.99626,5.75 -0.005,7.5133 -2.31613,11.31966 -11.89848,19.59543 -2.61484,2.25829 -7.23868,9.98109 -7.57662,12.65457 -0.0348,0.275 -1.09691,3.875 -2.36033,8 -2.67408,8.73075 -4.96149,13.74241 -7.40136,16.21628 -1.65738,1.68047 -1.56977,1.83614 1.83371,3.25821 4.76907,1.99264 33.75776,10.82941 44.38447,13.52994 26.03771,6.61688 56.11472,7.73527 93.52235,3.47756 12.1,-1.37721 23.66497,-2.89659 25.69994,-3.3764 2.03496,-0.47981 3.89201,-0.68031 4.12677,-0.44555 0.23476,0.23476 4.41979,-0.0574 9.30006,-0.64915 4.88028,-0.59179 10.89823,-1.31525 13.37323,-1.60769 10.38214,-1.22673 25.34193,-4.82886 28.11183,-6.76897 1.48877,-1.04278 1.46271,-1.63289 -0.31513,-7.13551 -1.77072,-5.4806 -1.89612,-8.2012 -1.45184,-31.49872 0.47582,-24.95101 1.89077,-37.47986 4.156,-36.79991 1.17762,0.35348 1.13245,1.31734 -0.64677,13.79991 -0.76771,5.38608 -1.35409,17.94437 -1.35409,29 0,19.04156 0.0673,19.67632 2.86088,27 1.57348,4.125 3.09474,8.625 3.38057,10 0.28583,1.375 1.05967,3.175 1.71965,4 0.65998,0.825 1.97755,3.60899 2.92794,6.18664 2.47033,6.70004 6.41112,12.13474 11.74582,16.19849 4.86457,3.70564 14.19436,14.54514 37.54025,43.61487 14.02098,17.45859 20.40313,27.15125 23.95033,36.3737 1.03331,2.68651 4.11842,7.23597 6.87456,10.13755 2.75,2.89512 6.5147,6.93483 8.366,8.97713 6.46279,7.12956 16.59524,9.3555 26.84905,5.89833 z m -144.55008,-3.80814 c 0.36573,-0.50679 2.27174,-0.95679 4.23559,-1 3.95942,-0.0871 5.00321,-1.47656 3.63627,-4.84042 -0.50023,-1.23098 -1.16783,-3.84191 -1.48357,-5.80207 -1.03473,-6.42379 -8.87521,-11.96206 -19.10672,-13.49637 -3.41651,-0.51233 -5.65427,-1.66871 -8.53825,-4.41217 C 469.35248,525.64497 469,524.84585 469,520.16679 c 0,-11.2598 13.0351,-41.82933 25.38759,-59.53819 7.11863,-10.20546 18.73835,-23.21641 21.52335,-24.10033 1.71435,-0.54412 1.72767,-0.78752 0.22457,-4.10373 -1.70163,-3.75422 -2.49064,-3.86692 -8.84141,-1.2629 -4.85403,1.99031 -12.09882,3.66772 -18.7941,4.35145 -2.2,0.22466 -5.125,0.61005 -6.5,0.85641 -3.31077,0.59319 -9.87407,1.36466 -18.73344,2.202 -3.97839,0.37601 -7.65109,1.18875 -8.16157,1.80608 -1.16311,1.40658 -7.47392,27.10651 -9.6068,39.12242 -0.87865,4.95 -2.50274,13.49447 -3.60908,18.98771 -3.22425,16.00906 -2.91982,23.87645 1.45709,37.65583 5.03315,15.84538 6.73317,17.74624 19.50903,21.81384 4.31,1.37223 8.60053,1.7671 18.14477,1.66991 6.875,-0.07 12.79923,-0.54193 13.16497,-1.04872 z m -364.6354,-1.62642 c 0.35619,-0.57632 1.58354,-0.91382 2.72746,-0.75 1.4994,0.21473 2.26982,-0.39985 2.76058,-2.20215 0.37441,-1.375 1.64861,-4.39457 2.83156,-6.71016 2.69583,-5.27698 2.72333,-10.33005 0.0973,-17.88329 -3.5356,-10.1695 -4.02741,-14.82862 -2.88155,-27.29788 1.98691,-21.62148 3.68385,-26.19857 11.66055,-31.45164 7.28785,-4.79943 13.26906,-6.51831 27.44537,-7.88725 l 11.67086,-1.12699 3.65105,-10.8867 c 2.00808,-5.98768 5.19369,-13.84628 7.07914,-17.46354 2.88376,-5.53254 3.42809,-7.61482 3.42809,-13.1137 0,-6.94101 -0.8191,-10.35788 -4.59757,-19.17885 -1.29576,-3.025 -3.06886,-8.07213 -3.94021,-11.21584 -0.87135,-3.14371 -2.60685,-7.64371 -3.85667,-10 -1.24981,-2.35629 -2.63232,-5.63416 -3.07224,-7.28416 -0.71403,-2.67814 -0.93816,-2.21084 -2.08903,4.35568 -1.36855,7.80849 -2.08848,9.96849 -6.64228,19.9288 -5.66814,12.39765 -24.78315,29.41137 -42.61807,37.93312 -10.71116,5.11794 -13.17418,7.99126 -13.18019,15.37585 -0.002,2.5264 -0.89913,7.19595 -1.9935,10.37678 -1.09436,3.18083 -3.11742,11.01378 -4.49567,17.40655 -1.37825,6.39277 -3.42215,14.99822 -4.54199,19.12322 -1.11984,4.125 -1.75998,8.625 -1.42253,10 0.33745,1.375 0.83635,7.675 1.10867,14 0.52871,12.28031 2.91861,21.79188 6.42338,25.56445 1.05484,1.13545 1.9179,2.78842 1.9179,3.67328 0,0.88485 1.165,2.99335 2.58889,4.68554 1.94277,2.30885 3.4255,3.07673 5.94099,3.07673 1.84365,0 3.64351,-0.47153 3.99969,-1.04785 z M 721,322.5 c 1.04007,-1.2532 0.89568,-1.5 -0.87756,-1.5 -1.21995,0 -2.12244,0.63782 -2.12244,1.5 0,0.825 0.3949,1.5 0.87756,1.5 0.48265,0 1.43775,-0.675 2.12244,-1.5 z m 4,-5.88999 c 0,-1.36962 -5.8545,-9.49416 -12.17603,-16.8972 -2.77816,-3.25346 -3.29914,-4.73324 -3.6967,-10.5 -0.34236,-4.96613 -0.65339,-6.06231 -1.19535,-4.21281 -1.25657,4.28829 -0.99677,9.0527 0.70065,12.84887 1.71146,3.82756 3.84913,8.77564 6.86961,15.90113 1.67508,3.9516 2.07175,4.25 5.64969,4.25 2.61854,0 3.84813,-0.44414 3.84813,-1.38999 z m -21,-23.36946 c 0,-0.9677 -0.9,-2.32152 -2,-3.00848 -2.28722,-1.42839 -2.62501,-4.46847 -0.67621,-6.08583 0.94414,-0.78356 1.63212,-0.79033 2.39884,-0.0236 0.76672,0.76672 1.27475,0.1658 1.77137,-2.0953 0.38298,-1.74369 0.49545,-3.37122 0.24993,-3.61673 -0.24551,-0.24551 -2.3941,1.28206 -4.77465,3.39461 l -4.32826,3.841 1.30945,4.67689 c 1.08782,3.8853 1.7106,4.6769 3.67949,4.6769 1.59537,0 2.37004,-0.5751 2.37004,-1.75945 z m -48.18392,-56.19319 c 2.02616,-1.05922 5.0062,-3.0909 6.62231,-4.51484 1.61612,-1.42394 3.94902,-2.84263 5.18421,-3.15265 1.34611,-0.33785 2.70088,-1.82886 3.38171,-3.72177 1.53718,-4.27382 2.39697,-28.4826 1.12436,-31.6581 -0.55104,-1.375 -1.03042,-1.90867 -1.06528,-1.18592 -0.0349,0.72274 -1.18839,3.77358 -2.56339,6.77963 -1.375,3.00606 -2.5,6.02499 -2.5,6.70873 0,0.68374 -1.4625,3.51242 -3.25,6.28595 -4.98902,7.74109 -6.41642,10.4623 -10.22563,19.49429 -3.77961,8.96181 -4.63491,12.94785 -1.95829,9.12644 0.86135,-1.22974 3.22385,-3.10253 5.25,-4.16176 z"
       id="path1" />
  </g>
</svg>
